<?xml version="1.0" encoding="utf-8"?>
<!-- Generator: Adobe Illustrator 25.2.3, SVG Export Plug-In . SVG Version: 6.00 Build 0)  -->
<svg version="1.1" id="Capa_1" xmlns="http://www.w3.org/2000/svg" xmlns:xlink="http://www.w3.org/1999/xlink" x="0px" y="0px"
	 viewBox="0 0 51 50.94" style="enable-background:new 0 0 51 50.94;" xml:space="preserve">
<style type="text/css">
	.st0{fill:#F2E7F9;stroke:#6A3381;}
	.st1{fill:#6A3381;}
</style>
<circle class="st0" cx="25.5" cy="25.47" r="24.5"/>
<path class="st1" d="M35.11,14.67c0,0,2.59-1,2.37,1.42c-0.07,1-0.72,4.48-1.22,8.25l-1.73,11.16c0,0-0.14,1.64-1.44,1.92
	c-1.29,0.28-3.24-1-3.6-1.28c-0.29-0.21-5.4-3.41-7.19-4.98c-0.5-0.43-1.08-1.28,0.07-2.28l7.55-7.11c0.86-0.85,1.73-2.84-1.87-0.43
	l-10.07,6.76c0,0-1.15,0.71-3.31,0.07L10,26.76c0,0-1.73-1.07,1.22-2.13C18.42,21.29,27.27,17.87,35.11,14.67L35.11,14.67z"/>
</svg>
