<?xml version="1.0" encoding="utf-8"?>
<!-- Generator: Adobe Illustrator 25.2.3, SVG Export Plug-In . SVG Version: 6.00 Build 0)  -->
<svg version="1.1" id="Capa_1" xmlns="http://www.w3.org/2000/svg" xmlns:xlink="http://www.w3.org/1999/xlink" x="0px" y="0px"
	 viewBox="0 0 51 50.94" style="enable-background:new 0 0 51 50.94;" xml:space="preserve">
<style type="text/css">
	.st0{fill:#F2E7F9;stroke:#6A3381;}
	.st1{fill:#6A3381;}
</style>
<circle class="st0" cx="25.44" cy="25.5" r="24.5"/>
<path class="st1" d="M26.48,19l6.62,8.06c0.78,0.95,0.15,2.44-1.04,2.44H18.82c-0.27,0-0.52-0.08-0.75-0.23
	c-0.22-0.15-0.4-0.37-0.51-0.63c-0.11-0.26-0.15-0.54-0.11-0.82c0.04-0.28,0.15-0.54,0.33-0.75L24.4,19
	c0.13-0.16,0.29-0.28,0.47-0.37c0.18-0.09,0.37-0.13,0.57-0.13c0.2,0,0.39,0.04,0.57,0.13C26.19,18.72,26.35,18.84,26.48,19
	L26.48,19z"/>
</svg>
